<svg width="24" height="24" viewBox="0 0 24 24" fill="none" xmlns="http://www.w3.org/2000/svg">
    <g clip-path="url(#clip0_92_380)">
        <path
            d="M23.2372 22.3866C22.8753 20.0037 21.8129 17.767 20.2594 16.0184C18.7421 14.3084 16.7413 13.0783 14.5907 12.5516C12.5021 12.0386 10.2713 12.1489 8.24735 12.9129C6.44309 13.5913 4.7965 14.7469 3.52215 16.2721C2.24262 17.8001 1.31981 19.6645 0.895886 21.664C0.844188 21.904 0.80283 22.1439 0.766641 22.3839C0.738207 22.5714 0.738207 22.7452 0.831264 22.9162C0.908811 23.0596 1.0639 23.1947 1.21641 23.2334C1.5266 23.3078 1.95311 23.1313 2.01256 22.7507C2.08494 22.2708 2.18575 21.7937 2.315 21.3276C2.37962 21.0959 2.44941 20.867 2.52696 20.6408C2.56573 20.5277 2.60451 20.4174 2.64845 20.3043C2.66913 20.2519 2.68981 20.1995 2.7079 20.1471C2.62777 20.3567 2.70532 20.1554 2.726 20.103C2.90953 19.6617 3.11632 19.2342 3.34896 18.8233C3.46269 18.622 3.58419 18.4234 3.70826 18.2276C3.76771 18.1365 3.82975 18.0455 3.8892 17.9545C3.92022 17.9104 3.95124 17.8635 3.98226 17.8194C3.99518 17.8028 4.06756 17.7035 3.99518 17.8001C3.92281 17.8994 4.00552 17.7863 4.01845 17.767C4.29245 17.3974 4.58713 17.0471 4.8999 16.7162C5.05758 16.5507 5.21784 16.3907 5.38328 16.2363C5.46599 16.159 5.5513 16.0818 5.6366 16.0074C5.67279 15.977 5.70898 15.9439 5.74516 15.9136C5.76843 15.8943 5.79169 15.875 5.81237 15.8557C5.92352 15.7619 5.73999 15.9136 5.79169 15.8722C6.14324 15.5854 6.51029 15.3206 6.89286 15.0834C7.28318 14.838 7.6916 14.6449 8.10001 14.4325C8.09484 14.4353 7.9475 14.5015 8.04314 14.4574C8.06382 14.4491 8.08709 14.438 8.10777 14.4298C8.16205 14.4049 8.21633 14.3829 8.2732 14.3608C8.38435 14.3139 8.4955 14.2726 8.60665 14.2284C8.81861 14.1485 9.03575 14.0767 9.25288 14.0106C9.69231 13.8782 10.1421 13.7761 10.5944 13.7044C10.6177 13.7017 10.6436 13.6961 10.6668 13.6934C10.7728 13.6768 10.61 13.7017 10.6048 13.7017C10.6642 13.6961 10.7263 13.6851 10.7857 13.6768C10.9072 13.663 11.0287 13.6493 11.1528 13.641C11.419 13.6189 11.6853 13.6079 11.9541 13.6051C12.241 13.6051 12.5279 13.6134 12.8149 13.6382C12.9415 13.6493 13.0708 13.6603 13.1974 13.6768C13.2595 13.6851 13.3241 13.6934 13.3861 13.7017C13.4818 13.7127 13.2181 13.6741 13.3603 13.6989C13.4016 13.7044 13.443 13.7127 13.4844 13.7182C14.0065 13.8037 14.5209 13.9306 15.0275 14.0988C15.2757 14.1816 15.5213 14.2726 15.7642 14.3746C15.8211 14.3994 15.878 14.4243 15.9349 14.4491C16.0202 14.4849 15.7849 14.3801 15.9116 14.438C15.9374 14.4491 15.9607 14.4601 15.9865 14.4739C16.1106 14.5318 16.2347 14.5925 16.3562 14.6559C16.8189 14.8959 17.2635 15.1689 17.69 15.4778C17.7908 15.5495 17.889 15.624 17.9873 15.7012C18.0415 15.7426 18.0958 15.7867 18.1501 15.8281C18.1708 15.8446 18.1915 15.8639 18.2147 15.8805C18.0648 15.7619 18.1837 15.8557 18.2122 15.8777C18.4112 16.046 18.6076 16.2225 18.7963 16.4073C19.1789 16.7796 19.5356 17.1823 19.8639 17.6098C19.9078 17.6677 19.9492 17.7228 19.9931 17.7808C20.0164 17.8111 20.0655 17.8828 19.9673 17.7449C19.9828 17.7697 20.0009 17.7918 20.0164 17.8139C20.0991 17.9297 20.1793 18.051 20.2594 18.1696C20.4093 18.3986 20.5515 18.633 20.6859 18.8757C20.8203 19.1156 20.947 19.3639 21.0633 19.6148C21.1202 19.7334 21.1719 19.8548 21.2261 19.9761C21.2546 20.0451 21.283 20.1113 21.3114 20.1802C21.3606 20.2988 21.2934 20.1416 21.2959 20.1389C21.2908 20.1416 21.3373 20.2464 21.3451 20.263C21.5467 20.7925 21.7095 21.3358 21.8336 21.8902C21.8956 22.1715 21.9499 22.4556 21.9913 22.7424C22.0145 22.9024 22.1619 23.0762 22.2885 23.1534C22.4281 23.2389 22.6323 23.2775 22.7874 23.2223C23.1493 23.1092 23.2967 22.7673 23.2372 22.3866Z"
            fill="currentColor" />
        <path
            d="M16.7569 7.20093C16.7569 7.35538 16.7517 7.50982 16.7388 7.66427C16.7336 7.72771 16.7285 7.79114 16.7207 7.85458C16.7155 7.90422 16.6897 8.04212 16.7259 7.82148C16.7181 7.87112 16.7129 7.92077 16.7052 7.97041C16.6612 8.25173 16.5966 8.53029 16.5139 8.80333C16.4751 8.93296 16.4286 9.05707 16.3847 9.18394C16.3381 9.31357 16.4493 9.02673 16.3976 9.1536C16.3847 9.1867 16.3692 9.21979 16.3562 9.25289C16.3278 9.31908 16.2968 9.38527 16.2658 9.45147C16.1417 9.71072 16.0021 9.95894 15.8418 10.1961C15.8082 10.2458 15.772 10.2927 15.741 10.3423C15.8677 10.1492 15.7281 10.3561 15.6945 10.4002C15.6066 10.5105 15.5161 10.6181 15.4231 10.7229C15.3378 10.8167 15.2473 10.9105 15.1543 10.9987C15.1051 11.0484 15.0534 11.0952 15.0017 11.1394C14.9604 11.178 14.7665 11.3242 14.9475 11.189C14.7226 11.3545 14.5054 11.5227 14.2625 11.6634C14.1513 11.7268 14.0402 11.7875 13.9264 11.8427C13.8954 11.8592 13.8644 11.873 13.8334 11.8868C13.7377 11.9309 13.8877 11.862 13.8928 11.8592C13.8179 11.8868 13.7429 11.9227 13.6679 11.953C13.4172 12.0495 13.1587 12.1267 12.8976 12.1819C12.8278 12.1957 12.7581 12.2095 12.6883 12.2233C12.6521 12.2288 12.6185 12.2343 12.5823 12.2398C12.7736 12.204 12.6779 12.226 12.6314 12.2315C12.4815 12.2509 12.3341 12.2619 12.1842 12.2674C11.9076 12.2784 11.631 12.2619 11.3545 12.2288C11.22 12.2122 11.5173 12.2564 11.3855 12.2343C11.357 12.2288 11.326 12.226 11.2976 12.2205C11.233 12.2095 11.1709 12.1985 11.1063 12.1847C10.9693 12.1543 10.8323 12.1212 10.6979 12.0799C10.5764 12.044 10.4549 12.0026 10.336 11.9557C10.2714 11.9309 10.2068 11.9033 10.1421 11.8758C10.0206 11.8261 10.2895 11.9447 10.1706 11.8896C10.1292 11.8702 10.0879 11.8509 10.0465 11.8289C9.80868 11.7103 9.58121 11.5751 9.3615 11.4207C9.2581 11.3462 9.15987 11.2662 9.05648 11.189C9.23742 11.3242 9.04355 11.1752 9.00219 11.1394C8.9505 11.0925 8.8988 11.0456 8.84969 10.9987C8.65323 10.8084 8.46712 10.6043 8.2991 10.3864C8.2655 10.3423 8.13884 10.1492 8.26291 10.3423C8.22414 10.2816 8.18278 10.2265 8.14142 10.1658C8.06388 10.0472 7.98891 9.92585 7.91912 9.80174C7.8545 9.6859 7.79505 9.57006 7.73818 9.45147C7.70716 9.38527 7.67873 9.31908 7.64771 9.25289C7.63737 9.23083 7.62961 9.20876 7.61927 9.1867C7.54948 9.0157 7.65805 9.29426 7.61669 9.18394C7.51846 8.91917 7.43575 8.65164 7.37371 8.37584C7.34011 8.22967 7.31426 8.08349 7.29099 7.93456C7.28841 7.90974 7.28324 7.88491 7.28065 7.86009C7.25997 7.71943 7.29875 8.03661 7.28582 7.89319C7.27807 7.80493 7.26773 7.71667 7.26256 7.62566C7.24188 7.33055 7.24446 7.03269 7.26514 6.73758C7.27031 6.66036 7.27807 6.58589 7.28582 6.50866C7.29875 6.37076 7.26514 6.65484 7.27807 6.56107C7.28324 6.53073 7.28582 6.49763 7.29099 6.46729C7.31426 6.31836 7.34011 6.17219 7.37371 6.02601C7.43833 5.73642 7.53656 5.46338 7.62961 5.18206C7.55465 5.4027 7.62703 5.19309 7.64771 5.1462C7.67614 5.08001 7.70716 5.01382 7.73818 4.94763C7.80022 4.818 7.86484 4.69113 7.93722 4.56702C8.00184 4.45394 8.06905 4.34086 8.14142 4.2333C8.1802 4.17538 8.22414 4.11746 8.26291 4.05679C8.13884 4.24709 8.27325 4.04576 8.30944 3.99887C8.48263 3.77547 8.67133 3.56862 8.87554 3.37556C8.91689 3.33419 8.96084 3.29558 9.00478 3.25696C9.04614 3.22111 9.24259 3.07218 9.05906 3.20732C9.17021 3.12458 9.27878 3.03632 9.39251 2.95634C9.61223 2.80465 9.84229 2.66951 10.0801 2.55367C10.1111 2.53712 10.1421 2.52333 10.1732 2.50954C10.2921 2.45162 10.0232 2.57298 10.1447 2.52333C10.2042 2.49851 10.261 2.47369 10.3205 2.45162C10.4575 2.39922 10.5945 2.35233 10.7341 2.31096C10.8582 2.27511 10.9822 2.24201 11.1089 2.21719C11.1658 2.20616 11.2252 2.19237 11.2821 2.1841C11.3183 2.17858 11.3519 2.17306 11.3881 2.16755C11.5044 2.14824 11.2123 2.18961 11.3932 2.16755C11.6698 2.13445 11.9464 2.12342 12.223 2.13445C12.3548 2.13997 12.4866 2.151 12.6159 2.16755C12.6624 2.17306 12.7917 2.20064 12.5849 2.16203C12.6185 2.16755 12.6547 2.17306 12.6908 2.17858C12.771 2.19237 12.8537 2.20892 12.9338 2.22547C13.1949 2.28338 13.4534 2.36061 13.7041 2.4599C13.7636 2.48196 13.8204 2.50954 13.8799 2.53436C13.96 2.56746 13.7222 2.4599 13.836 2.51506C13.867 2.52885 13.898 2.5454 13.929 2.55919C14.0531 2.61986 14.1746 2.68605 14.2961 2.75776C14.4046 2.8212 14.5132 2.89015 14.6166 2.96461C14.6735 3.00323 14.7303 3.0446 14.7846 3.08597C14.813 3.10803 14.8389 3.12734 14.8673 3.1494C14.8854 3.16319 15.0069 3.26248 14.9113 3.1825C14.8182 3.10527 14.9113 3.1825 14.9268 3.19629C14.9526 3.21835 14.9785 3.24317 15.0043 3.26524C15.056 3.31212 15.1077 3.35901 15.1568 3.4059C15.2576 3.50243 15.3559 3.60447 15.4489 3.70652C15.5342 3.80305 15.6169 3.90234 15.6971 4.00163C15.7333 4.04576 15.8703 4.25537 15.7436 4.05955C15.7824 4.12022 15.8237 4.17538 15.8651 4.23606C16.0176 4.46773 16.1572 4.7132 16.2761 4.96693C16.3045 5.02761 16.3304 5.08829 16.3588 5.14896C16.3743 5.18206 16.3872 5.21516 16.4002 5.24825C16.4545 5.37512 16.3407 5.08829 16.3872 5.21791C16.4389 5.35581 16.4855 5.49371 16.5294 5.63437C16.6121 5.90742 16.6742 6.18598 16.7155 6.47005C16.7207 6.50866 16.7259 6.54452 16.731 6.58313C16.6949 6.36525 16.7207 6.50039 16.7259 6.55003C16.7336 6.61347 16.7388 6.6769 16.744 6.74034C16.7517 6.89203 16.7569 7.04648 16.7569 7.20093C16.7569 7.56223 17.0542 7.90698 17.4031 7.89043C17.7521 7.87388 18.0493 7.58705 18.0493 7.20093C18.0442 5.89363 17.6719 4.5753 16.9585 3.50794C16.227 2.41301 15.2266 1.59388 14.0427 1.12778C11.7138 0.209356 8.94791 1.00918 7.37112 3.05287C6.55688 4.10919 6.07092 5.37512 5.97011 6.73758C5.87188 8.0504 6.17949 9.40458 6.82054 10.5299C7.43833 11.6165 8.36631 12.5267 9.45455 13.0507C10.6462 13.6243 11.9541 13.7898 13.2414 13.5168C15.6325 13.0066 17.597 10.8387 17.9666 8.26276C18.0183 7.90974 18.0519 7.55671 18.0519 7.20093C18.0519 6.83963 17.7547 6.49487 17.4057 6.51142C17.0516 6.52797 16.7569 6.8148 16.7569 7.20093Z"
            fill="currentColor" />
    </g>
    <defs>
        <clipPath id="clip0_92_380">
            <rect width="24" height="24" fill="white" />
        </clipPath>
    </defs>
</svg>
    